<svg xmlns="http://www.w3.org/2000/svg" viewBox="0 0 218.01 218.01"><defs><style>.cls-1{fill:#243040;}.cls-2{fill:#e64142;}</style></defs><title>Asset 6</title><g id="Layer_2" data-name="Layer 2"><g id="Layer_1-2" data-name="Layer 1"><path class="cls-1" d="M218,134.44h0V3.63A3.43,3.43,0,0,0,214.38,0H3.63A3.43,3.43,0,0,0,0,3.63V174.41A3.43,3.43,0,0,0,3.63,178H40v-7.27H7.27V7.27H210.74V130.81H174.41a3.43,3.43,0,0,0-3.63,3.63v36.34H90.84V178h83.57A3.3,3.3,0,0,0,177,177l40-40c.36-.36.36-.73.73-1.09v-.36A1.33,1.33,0,0,0,218,134.44Zm-40,3.63h27.61l-13.81,13.81L178,165.69Z"/><path class="cls-2" d="M68.67,35.25a3.37,3.37,0,0,0-6.54,0L51.6,66.86A5.16,5.16,0,0,0,50.87,69V214.38A3.43,3.43,0,0,0,54.5,218H76.3a3.43,3.43,0,0,0,3.63-3.63V69a3.9,3.9,0,0,0-.73-2.18ZM58.14,72.67h3.63V185.31H58.14Zm10.9,0h3.63V185.31H69ZM65.4,48,71.22,65.4H59.59Zm7.27,162.78H58.14V192.58H72.67Z"/><path class="cls-1" d="M127.17,21.8a32.57,32.57,0,0,0-32.7,32.7v7.27h7.27V54.5a25.43,25.43,0,1,1,50.87,0v7.27h7.27V54.5A32.57,32.57,0,0,0,127.17,21.8Z"/><path class="cls-1" d="M196.21,58.14V50.87h-7.27v7.27a25.43,25.43,0,1,1-50.87,0V50.87h-7.27v7.27a32.7,32.7,0,1,0,65.4,0Z"/><path class="cls-1" d="M90.84,119.91v36.34a3.43,3.43,0,0,0,3.63,3.63h36.34a3.43,3.43,0,0,0,3.63-3.63V119.91a3.43,3.43,0,0,0-3.63-3.63H94.47A3.43,3.43,0,0,0,90.84,119.91Zm7.27,3.63h29.07v29.07H98.11Z"/><path class="cls-1" d="M141.71,127.17v7.27H149a3.43,3.43,0,0,0,3.63-3.63V101.74A3.43,3.43,0,0,0,149,98.11H119.91a3.43,3.43,0,0,0-3.63,3.63V109h7.27v-3.63h21.8v21.8Z"/><rect class="cls-1" x="21.8" y="18.17" width="7.27" height="7.27"/><rect class="cls-1" x="36.34" y="18.17" width="7.27" height="7.27"/><rect class="cls-1" x="50.87" y="18.17" width="7.27" height="7.27"/><rect class="cls-1" x="36.34" y="32.7" width="7.27" height="7.27"/><rect class="cls-1" x="21.8" y="32.7" width="7.27" height="7.27"/><rect class="cls-1" x="21.8" y="47.24" width="7.27" height="7.27"/><rect class="cls-1" x="21.8" y="61.77" width="7.27" height="7.27"/><rect class="cls-1" x="21.8" y="76.3" width="7.27" height="7.27"/><rect class="cls-1" x="21.8" y="90.84" width="7.27" height="7.27"/><rect class="cls-1" x="21.8" y="105.37" width="7.27" height="7.27"/><rect class="cls-1" x="21.8" y="119.91" width="7.27" height="7.27"/><rect class="cls-1" x="21.8" y="134.44" width="7.27" height="7.27"/><rect class="cls-1" x="21.8" y="148.97" width="7.27" height="7.27"/></g></g></svg>