<svg xmlns="http://www.w3.org/2000/svg" viewBox="0 0 243.59 243.59"><defs><style>.cls-1{fill:#243040;}.cls-2{fill:#e64142;}</style></defs><title>Asset 7</title><g id="Layer_2" data-name="Layer 2"><g id="Layer_1-2" data-name="Layer 1"><path class="cls-1" d="M239.53,174.58h-7.12c-.22-.56-.45-1.12-.71-1.69l5-5a4.06,4.06,0,0,0,0-5.74l-17.22-17.22a4,4,0,0,0-3-1.15,20.25,20.25,0,0,0,10.88-17.88V20.3A20.32,20.32,0,0,0,207.05,0H20.3A20.32,20.32,0,0,0,0,20.3V125.86a20.32,20.32,0,0,0,20.3,20.3h53L57.94,174.58H50.75a14.21,14.21,0,0,0,0,28.42H138a4.06,4.06,0,0,0,4.06,4.06h7.12c.22.56.45,1.12.71,1.69l-5,5a4.06,4.06,0,0,0,0,5.74l17.22,17.22a4.06,4.06,0,0,0,5.74,0l5-5c.56.25,1.12.48,1.69.71v7.12a4.06,4.06,0,0,0,4.06,4.06H203a4.06,4.06,0,0,0,4.06-4.06v-7.12c.56-.22,1.12-.45,1.69-.71l5,5a4.06,4.06,0,0,0,5.74,0l17.22-17.22a4.06,4.06,0,0,0,0-5.74l-5-5c.25-.56.48-1.12.71-1.69h7.12a4.06,4.06,0,0,0,4.06-4.06V178.64A4.06,4.06,0,0,0,239.53,174.58ZM8.12,20.3A12.19,12.19,0,0,1,20.3,8.12H207.05A12.19,12.19,0,0,1,219.23,20.3v85.26H8.12ZM20.3,138A12.19,12.19,0,0,1,8.12,125.86V113.68H219.23v12.18A12.19,12.19,0,0,1,207.05,138H20.3Zm193.43,6.9-5,5c-.56-.25-1.12-.48-1.69-.71v-3.06A20,20,0,0,0,213.73,144.94Zm-39.15,1.22v3.06c-.56.22-1.12.45-1.69.71l-3.77-3.77Zm-13.74,0-3.5,3.5-2.38-3.5ZM138,194.88H50.75a6.09,6.09,0,0,1,0-12.18H138Zm-70.87-20.3,15.34-28.42h62.62l6.37,9.34-6.61,6.61a4.06,4.06,0,0,0,0,5.74l5,5c-.25.56-.48,1.12-.71,1.69h-82Zm168.31,24.36h-5.92a4.06,4.06,0,0,0-3.87,2.84,36.53,36.53,0,0,1-2.48,5.92,4.06,4.06,0,0,0,.73,4.75l4.21,4.21-11.48,11.48-4.21-4.21a4.07,4.07,0,0,0-4.75-.73,36.53,36.53,0,0,1-5.92,2.48,4.07,4.07,0,0,0-2.84,3.88v5.92H182.7v-5.92a4.06,4.06,0,0,0-2.84-3.87,36.53,36.53,0,0,1-5.92-2.48,4.07,4.07,0,0,0-4.75.73L165,228.14,153.5,216.66l4.21-4.21a4.06,4.06,0,0,0,.73-4.75,36.53,36.53,0,0,1-2.48-5.92,4.07,4.07,0,0,0-3.88-2.84h-5.92V182.7h5.92a4.06,4.06,0,0,0,3.87-2.84,36.53,36.53,0,0,1,2.48-5.92,4.06,4.06,0,0,0-.73-4.75L153.49,165,165,153.5l4.21,4.21a4.05,4.05,0,0,0,4.75.73,36.53,36.53,0,0,1,5.92-2.48,4.07,4.07,0,0,0,2.84-3.88v-5.92h16.24v5.92a4.06,4.06,0,0,0,2.84,3.87,36.53,36.53,0,0,1,5.92,2.48,4.06,4.06,0,0,0,4.75-.73l4.21-4.21L228.13,165l-4.21,4.21a4.06,4.06,0,0,0-.73,4.75,36.53,36.53,0,0,1,2.48,5.92,4.07,4.07,0,0,0,3.88,2.84h5.92Z"/><path class="cls-1" d="M190.82,166.46a24.36,24.36,0,1,0,24.36,24.36A24.38,24.38,0,0,0,190.82,166.46Zm0,40.6a16.24,16.24,0,1,1,16.24-16.24A16.26,16.26,0,0,1,190.82,207.05Z"/><path class="cls-2" d="M80,31.29l-5.74-5.74L45.85,54a4.06,4.06,0,0,0,0,5.74L74.27,88.13,80,82.39,54.46,56.84Z"/><path class="cls-2" d="M169.33,54,140.91,25.55l-5.74,5.74,25.55,25.55L135.17,82.39l5.74,5.74,28.42-28.42A4.06,4.06,0,0,0,169.33,54Z"/><rect class="cls-2" x="66.74" y="48.73" width="81.68" height="8.12" transform="translate(12.25 125.4) rotate(-63.43)"/><rect class="cls-1" x="158.34" y="81.2" width="8.12" height="8.12"/><rect class="cls-1" x="174.58" y="81.2" width="8.12" height="8.12"/><rect class="cls-1" x="190.82" y="81.2" width="8.12" height="8.12"/></g></g></svg>