<svg xmlns="http://www.w3.org/2000/svg" viewBox="0 0 293.5 180.73"><defs><style>.cls-1{fill:#e63b35;}.cls-1,.cls-2{stroke:#e63b35;stroke-miterlimit:10;}.cls-2{fill:none;stroke-width:8px;stroke-dasharray:10;}</style></defs><title>Asset 1</title><g id="Layer_2" data-name="Layer 2"><g id="Layer_7" data-name="Layer 7"><path class="cls-1" d="M168.47,8a16.17,16.17,0,0,0-16.15,16.15v7.33l-126.09,40A12.89,12.89,0,0,0,.5,72.6v35.53a12.89,12.89,0,0,0,25.72,1.15l10.88,3.45a12.88,12.88,0,0,0,4.63,21.84l46.09,14.93A12.88,12.88,0,0,0,104.3,134l48,15.22v7.33a16.15,16.15,0,1,0,32.3,0V24.15A16.17,16.17,0,0,0,168.47,8ZM98,139.19a6.49,6.49,0,0,1-8.13,4.16l-46.1-14.93a6.49,6.49,0,0,1-4.15-8.13,6.47,6.47,0,0,1,6.15-4.47,6.4,6.4,0,0,1,2,.31l46.1,14.93A6.46,6.46,0,0,1,98,139.19ZM19.88,108.13a6.46,6.46,0,0,1-12.92,0V72.6a6.46,6.46,0,1,1,12.92,0v35.53Zm6.46-5.59V78.2l126-39.94V142.48Zm151.82,54a9.69,9.69,0,0,1-19.38,0V24.15a9.69,9.69,0,0,1,19.38,0Z"/><line class="cls-2" x1="240.64" y1="90.36" x2="293.5" y2="90.36"/><line class="cls-2" x1="221.33" y1="40.21" x2="258.71" y2="2.83"/><line class="cls-2" x1="221.33" y1="140.52" x2="258.71" y2="177.9"/><line class="cls-2" x1="237.34" y1="119.76" x2="286.96" y2="138.01"/><line class="cls-2" x1="237.12" y1="62.8" x2="287.18" y2="45.8"/></g></g></svg>