<?xml version="1.0" standalone="no"?>
<!DOCTYPE svg PUBLIC "-//W3C//DTD SVG 20010904//EN"
 "http://www.w3.org/TR/2001/REC-SVG-20010904/DTD/svg10.dtd">
<svg version="1.0" xmlns="http://www.w3.org/2000/svg"
 width="564.000000pt" height="564.000000pt" viewBox="0 0 564.000000 564.000000"
 preserveAspectRatio="xMidYMid meet">
<metadata>
Created by potrace 1.11, written by Peter Selinger 2001-2013
</metadata>
<g transform="translate(0.000000,564.000000) scale(0.100000,-0.100000)"
fill="#000000" stroke="none">
<path d="M690 4868 c-156 -24 -294 -154 -330 -310 -6 -27 -10 -541 -10 -1398
l0 -1356 78 38 c119 58 206 76 342 74 135 -3 212 -21 321 -75 l77 -38 0 811
c1 446 1 822 1 836 1 21 48 -22 284 -256 159 -159 302 -293 327 -307 116 -65
257 -68 386 -7 38 18 157 131 542 514 l492 491 552 -553 553 -552 -691 -692
c-722 -724 -719 -721 -743 -830 -6 -24 -9 -77 -7 -119 11 -310 374 -490 634
-314 51 34 1686 1669 1724 1723 82 118 95 274 32 409 -24 51 -125 157 -903
936 -482 483 -895 892 -919 909 -86 60 -201 84 -305 66 -124 -23 -126 -25
-654 -551 -271 -270 -495 -489 -497 -486 -3 2 -225 223 -493 490 -417 415
-496 489 -544 512 -85 39 -157 49 -249 35z"/>
<path d="M735 1573 c-180 -29 -274 -92 -343 -232 -33 -67 -37 -84 -39 -163 -3
-130 37 -229 129 -314 36 -34 115 -83 145 -89 10 -2 36 -7 58 -12 137 -32 307
33 397 152 168 222 76 537 -186 633 -52 20 -125 31 -161 25z"/>
</g>
</svg>
