<svg xmlns="http://www.w3.org/2000/svg" viewBox="0 0 494.34 411.77"><defs><style>.cls-1{fill:#121212;}.cls-2{fill:#e73b35;}</style></defs><title>Asset 1</title><g id="Layer_2" data-name="Layer 2"><g id="Layer_1-2" data-name="Layer 1"><path class="cls-1" d="M482.38,180.46,313.88,12a40.83,40.83,0,0,0-57.75,0l-93.21,93.21L69.71,12A40.83,40.83,0,0,0,0,40.84V307.08a75.57,75.57,0,0,1,81.67,0V139.42L134,191.8a40.86,40.86,0,0,0,58.17-.42L285,98.58,395.76,209.34,263,342.06a40.83,40.83,0,1,0,57.75,57.75l161.6-161.6A40.83,40.83,0,0,0,482.38,180.46Z"/><path class="cls-2" d="M40.83,330.1a40.84,40.84,0,1,0,40.83,40.83A40.83,40.83,0,0,0,40.83,330.1Z"/></g></g></svg>